<svg width="100" height="100" viewBox="0 0 100 100" xmlns="http://www.w3.org/2000/svg">
  <!-- 背景渐变定义 -->
  <defs>
    <linearGradient id="bgGradient" x1="0%" y1="0%" x2="100%" y2="100%">
      <stop offset="0%" style="stop-color:#1890ff;stop-opacity:1" />
      <stop offset="100%" style="stop-color:#096dd9;stop-opacity:1" />
    </linearGradient>
    <linearGradient id="treeGradient" x1="0%" y1="0%" x2="100%" y2="100%">
      <stop offset="0%" style="stop-color:#52c41a;stop-opacity:1" />
      <stop offset="100%" style="stop-color:#389e0d;stop-opacity:1" />
    </linearGradient>
  </defs>
  
  <!-- 背景六边形 -->
  <polygon points="50,5 85,25 85,65 50,85 15,65 15,25" fill="url(#bgGradient)"/>
  
  <!-- 树形结构 -->
  <g stroke="white" stroke-width="2" fill="none">
    <!-- 主干 -->
    <line x1="50" y1="25" x2="50" y2="65"/>
    <!-- 分支 -->
    <line x1="35" y1="35" x2="65" y2="35"/>
    <line x1="35" y1="50" x2="65" y2="50"/>
  </g>
  
  <!-- 节点 -->
  <circle cx="50" cy="25" r="4" fill="white"/>
  <circle cx="35" cy="35" r="4" fill="white"/>
  <circle cx="65" cy="35" r="4" fill="white"/>
  <circle cx="35" cy="50" r="4" fill="white"/>
  <circle cx="65" cy="50" r="4" fill="white"/>
  <circle cx="50" cy="65" r="4" fill="white"/>
  
  <!-- 聚合符号 "+" -->
  <circle cx="72" cy="20" r="7" fill="#fadb14"/>
  <line x1="72" y1="16" x2="72" y2="24" stroke="#000" stroke-width="2" stroke-linecap="round"/>
  <line x1="68" y1="20" x2="76" y2="20" stroke="#000" stroke-width="2" stroke-linecap="round"/>
  
  <!-- 表格元素 -->
  <rect x="25" y="70" width="50" height="12" rx="2" fill="white" opacity="0.9"/>
  <line x1="25" y1="74" x2="75" y2="74" stroke="#1890ff" stroke-width="0.5"/>
  <line x1="42" y1="70" x2="42" y2="82" stroke="#1890ff" stroke-width="0.5"/>
  <line x1="58" y1="70" x2="58" y2="82" stroke="#1890ff" stroke-width="0.5"/>
</svg>